<svg width="233" height="62" viewBox="0 0 233 62" fill="none" xmlns="http://www.w3.org/2000/svg">
<g clip-path="url(#clip0_1_820)">
<path d="M8.23424 9.43398L6.66424 7.93311L5.09424 9.43398L6.66424 11.0031L8.23424 9.43398Z" fill="#E2E2E2"/>
<path d="M5.02622 12.9141C3.59274 12.9141 2.50056 13.4598 1.54491 14.4149C0.657514 15.4383 0.179688 16.6663 0.179688 18.0989C0.179688 19.5316 0.657514 20.6913 1.54491 21.7147C2.4323 22.6698 3.59274 23.1473 5.02622 23.1473C6.39144 23.1473 7.55187 22.6698 8.43927 21.7147C9.32666 20.7596 9.80448 19.5316 9.80448 18.0989C9.80448 16.6663 9.32666 15.4383 8.43927 14.4149C7.55187 13.3916 6.39144 12.9141 5.02622 12.9141ZM7.21057 20.3502C6.66448 20.9642 5.91361 21.2371 5.02622 21.2371C4.13882 21.2371 3.38795 20.9642 2.84187 20.3502C2.29578 19.7362 1.95447 18.9858 1.95447 18.0989C1.95447 17.1438 2.22752 16.3934 2.84187 15.7112C3.38795 15.0289 4.13882 14.756 5.02622 14.756C5.91361 14.756 6.59622 15.0972 7.21057 15.7112C7.75666 16.3934 8.09796 17.1438 8.09796 18.0989C8.0297 19.054 7.75666 19.8045 7.21057 20.3502Z" fill="#E2E2E2"/>
<path d="M4.88961 9.43398L3.31961 7.93311L1.81787 9.43398L3.31961 11.0031L4.88961 9.43398Z" fill="#E2E2E2"/>
<path d="M16.0844 9.43398L14.5144 7.93311L13.0127 9.43398L14.5827 11.0031L16.0844 9.43398Z" fill="#E2E2E2"/>
<path d="M23.73 17.757C23.73 16.8019 24.0713 16.1197 24.6857 15.5057C25.3 14.9599 26.1192 14.687 27.0748 14.687C27.7574 14.687 28.7813 14.8917 30.0783 15.301L30.5561 13.8002C28.9179 13.2544 27.6892 12.9815 26.8018 12.9815C25.4365 12.9815 24.2761 13.3908 23.3887 14.2095C22.5013 15.0281 22.0235 16.1197 22.0235 17.4159C22.0235 18.6439 22.4331 19.9401 23.1839 21.1681C22.7061 21.1681 18.8152 21.1681 17.7913 21.1681C16.2896 21.1681 15.5387 20.4859 15.4022 19.1897V12.6404L13.6274 12.9133V22.3961C13.6274 24.7839 12.3987 26.0119 9.87305 26.0119L10.0096 27.5127C11.7844 27.5127 13.1496 27.1034 14.037 26.2847C14.9244 25.4661 15.4022 24.1699 15.4022 22.4643V21.9185C15.88 22.669 16.6991 23.0101 17.7913 23.0101C21.6822 23.0101 28.44 22.7372 31.58 22.1232L31.9896 20.213C29.3274 20.6906 27.0065 20.8952 25.027 21.0317C24.1396 19.9401 23.73 18.8486 23.73 17.757Z" fill="#E2E2E2"/>
<path d="M27.8935 9.57071L26.3235 8.06982L24.8218 9.57071L26.3235 11.1398L27.8935 9.57071Z" fill="#E2E2E2"/>
<path d="M46.2561 12.9141C44.9591 12.9141 43.8669 13.3234 42.9795 14.2103C42.0921 15.0972 41.6143 16.1887 41.4778 17.4849C39.3617 17.7578 38.2695 19.054 38.2695 21.3736V28.6051L40.0443 28.3322V21.5782C40.0443 20.282 40.5221 19.5316 41.5461 19.3269C41.8191 20.4185 42.3652 21.3736 43.1843 22.0558C44.0035 22.738 45.0274 23.0791 46.1878 23.0791C47.553 23.0791 48.7135 22.6016 49.6691 21.6465C50.5565 20.6914 51.0343 19.4634 51.0343 18.0307C51.0343 16.598 50.5565 15.37 49.6691 14.3467C48.7817 13.3916 47.6213 12.9141 46.2561 12.9141ZM48.4404 20.3502C47.8943 20.9642 47.1435 21.2371 46.2561 21.2371C45.3687 21.2371 44.6178 20.9642 44.0717 20.3502C43.5256 19.7362 43.1843 18.9858 43.1843 18.0989C43.1843 17.1438 43.4574 16.3934 44.0717 15.7112C44.6178 15.0289 45.3687 14.756 46.2561 14.756C47.1435 14.756 47.8943 15.0972 48.4404 15.7112C48.9865 16.3934 49.2595 17.1438 49.2595 18.0989C49.2595 19.054 48.9865 19.8045 48.4404 20.3502Z" fill="#E2E2E2"/>
<path d="M65.9829 11.8213L64.4811 10.2522L62.9111 11.8213L64.4811 13.3222L65.9829 11.8213Z" fill="#E2E2E2"/>
<path d="M62.6382 11.8213L61.1365 10.2522L59.6348 11.8213L61.1365 13.3222L62.6382 11.8213Z" fill="#E2E2E2"/>
<path d="M68.3041 23.0112C69.7376 23.0112 70.8298 22.67 71.5807 21.9878C72.3315 21.3056 72.6728 20.2823 72.6728 18.9861V12.5732L70.8981 12.8461V18.4403C70.8981 20.2141 70.0107 21.0327 68.3041 21.0327H66.7341C65.642 21.0327 64.6863 20.6916 63.7307 20.0094C63.7989 19.6001 63.8672 19.259 63.8672 18.9178V14.7563L62.0924 15.0292V18.4403C62.0924 19.3954 61.8193 20.0094 61.3415 20.4187C60.8637 20.8281 59.2254 21.0327 58.065 21.0327C56.2902 21.0327 55.4711 20.1458 55.4711 18.3038V7.59302L53.6963 7.86591V18.7132C53.6963 21.5103 55.198 22.8747 58.1333 22.8747C60.2493 22.8747 62.502 22.3972 63.2528 21.3738C64.345 22.3972 65.5737 22.8747 66.8707 22.8747H68.3041V23.0112Z" fill="#E2E2E2"/>
<path d="M66.5298 26.1488L68.0315 27.6497L69.6015 26.1488L68.0315 24.6479L66.5298 26.1488Z" fill="#E2E2E2"/>
<path d="M69.8062 26.1488L71.3762 27.6497L72.8779 26.1488L71.3762 24.6479L69.8062 26.1488Z" fill="#E2E2E2"/>
<path d="M76.359 7.04665C76.359 6.77377 76.4272 6.5691 76.632 6.36444C76.8368 6.22799 77.1098 6.09155 77.3829 6.09155C77.7924 6.09155 78.2703 6.228 78.7481 6.43266V5.40934C78.1337 5.13645 77.5877 5 77.1098 5C76.5637 5 76.0859 5.20467 75.7446 5.54578C75.4033 5.88689 75.1985 6.29622 75.1985 6.84199C75.1985 7.31955 75.335 7.72887 75.5398 8.06998H74.3794V9.29798H79.0894L79.3624 8.06998H76.632C76.4955 7.79709 76.359 7.45599 76.359 7.04665Z" fill="#E2E2E2"/>
<path d="M76.0176 23.0103H77.7924V10.321L76.0176 10.5939V23.0103Z" fill="#E2E2E2"/>
<path d="M89.9429 9.43409L88.4412 7.86499L86.9395 9.43409L88.4412 10.935L89.9429 9.43409Z" fill="#E2E2E2"/>
<path d="M93.2876 9.43409L91.7858 7.86499L90.2158 9.43409L91.7858 10.935L93.2876 9.43409Z" fill="#E2E2E2"/>
<path d="M131.992 18.4395C131.992 19.3264 131.787 19.9404 131.309 20.4179C130.831 20.8273 130.217 21.1002 129.33 21.1002C128.579 21.1002 127.76 20.8955 126.872 20.5544C127.077 20.0768 127.145 19.5311 127.145 18.9171V14.7555L125.371 15.0284V18.4395C125.371 20.2133 124.483 21.0319 122.708 21.0319C122.094 21.0319 121.343 20.8955 120.524 20.5544C120.661 20.0768 120.797 19.5311 120.797 18.9171V14.7555L119.022 15.0284V18.4395C119.022 20.2133 118.135 21.0319 116.36 21.0319C115.473 21.0319 114.585 20.7591 113.766 20.2133C113.903 19.7357 113.903 19.3264 113.903 18.8488V12.436L112.128 12.7089V18.3031C112.128 19.1899 111.923 19.8039 111.445 20.2815C110.967 20.6908 110.353 20.9637 109.466 20.9637C108.715 20.9637 107.896 20.7591 107.008 20.4179C107.213 19.9404 107.281 19.3946 107.281 18.7806V14.6191L105.507 14.892V18.3031C105.507 20.0768 104.619 20.8955 102.844 20.8955C102.23 20.8955 101.479 20.7591 100.66 20.4179C100.797 19.9404 100.933 19.3946 100.933 18.7806V14.6191L99.1583 14.892V18.3031C99.1583 20.0768 98.2709 20.8955 96.4962 20.8955C95.7453 20.8955 95.2675 20.6908 94.9262 20.3497C94.5849 20.0086 94.4483 19.3946 94.4483 18.576V11.6855L92.6736 11.9584V13.2547C91.6496 12.8453 90.694 12.6407 89.8748 12.6407C88.4414 12.6407 87.3492 13.1864 86.3935 14.1415C85.5061 15.1649 85.0283 16.3929 85.0283 17.8255C85.0283 19.2582 85.5061 20.4179 86.3935 21.4413C87.2809 22.3964 88.4414 22.8739 89.8748 22.8739C90.967 22.8739 92.264 22.5328 93.6975 21.7824C94.3118 22.3964 95.2675 22.6693 96.5644 22.6693C97.9979 22.6693 99.1583 22.3282 99.9092 21.5777C101.001 22.3282 102.025 22.6693 103.049 22.6693C104.414 22.6693 105.507 22.3282 106.257 21.5777C107.486 22.3282 108.647 22.6693 109.739 22.6693C111.241 22.6693 112.333 22.2599 113.015 21.4413C114.039 22.3282 115.131 22.7375 116.292 22.7375C117.725 22.7375 118.886 22.3964 119.637 21.6459C120.729 22.3964 121.753 22.7375 122.777 22.7375C124.142 22.7375 125.234 22.3964 125.985 21.6459C127.214 22.3964 128.374 22.7375 129.466 22.7375C130.831 22.7375 131.855 22.3964 132.538 21.7142C133.221 21.0319 133.562 20.0086 133.562 18.7124V12.2995L131.787 12.5724V18.4395H131.992ZM90.1479 21.373C89.1922 21.373 88.4414 21.0319 87.8953 20.4179C87.2809 19.8039 87.0079 19.0535 87.0079 18.0984C87.0079 17.1433 87.2809 16.3246 87.8953 15.6424C88.5096 14.9602 89.2605 14.6873 90.2162 14.6873C90.8988 14.6873 91.8544 14.892 92.9466 15.2331V18.8488C92.9466 19.5311 93.0149 20.1451 93.1514 20.6226C92.0592 21.1684 91.0353 21.373 90.1479 21.373Z" fill="#E2E2E2"/>
<path d="M143.323 9.63926H140.388C140.115 9.29815 139.978 9.02526 139.978 8.68415C139.978 8.34304 140.115 8.13838 140.32 7.93371C140.524 7.72905 140.798 7.66082 141.207 7.66082C141.617 7.66082 142.094 7.79727 142.641 8.00193V6.70572C142.026 6.43283 141.48 6.29639 141.002 6.29639C140.32 6.29639 139.774 6.50105 139.364 6.84216C138.954 7.25149 138.75 7.72905 138.75 8.34304C138.75 8.75237 138.886 9.16171 139.159 9.63926H137.862V11.0719H142.845L143.323 9.63926Z" fill="#E2E2E2"/>
<path d="M155.473 14.2097C154.586 13.3228 153.426 12.8452 152.129 12.8452C150.695 12.8452 149.535 13.3228 148.647 14.2097C147.76 15.1648 147.282 16.3245 147.282 17.689C147.282 18.6441 147.623 19.8038 148.238 21.1001H146.463H145.234V17.6207C145.234 16.1881 144.825 15.0965 144.006 14.2097C143.186 13.3228 142.163 12.9134 140.866 12.9134C139.5 12.9134 138.34 13.391 137.384 14.3461C136.497 15.3012 136.019 16.5292 136.019 18.0301C136.019 19.531 136.497 20.759 137.384 21.6458C138.272 22.5327 139.5 23.0103 140.934 23.0103H143.459C143.323 24.0336 142.709 24.784 141.685 25.2616C140.661 25.7391 139.159 25.9438 137.248 25.9438L137.453 27.4447C142.436 27.4447 145.029 25.9438 145.234 22.942H146.463H151.036C152.88 22.942 154.313 22.4645 155.337 21.5094C156.361 20.5543 156.907 19.2581 156.907 17.5525C156.839 16.2563 156.361 15.0965 155.473 14.2097ZM143.391 21.1001C142.299 21.1001 141.548 21.1683 141.07 21.1683C139.978 21.1683 139.159 20.8954 138.545 20.3496C137.93 19.8038 137.589 18.9852 137.589 17.9619C137.589 17.0067 137.862 16.2563 138.476 15.6423C139.023 15.0283 139.773 14.7554 140.661 14.7554C141.48 14.7554 142.163 15.0283 142.64 15.5741C143.118 16.1199 143.391 16.8703 143.391 17.7572V21.1001ZM153.972 20.2132C153.289 20.8272 152.333 21.1001 151.105 21.1001H150.013C149.33 19.8721 148.989 18.7123 148.989 17.7572C148.989 16.9385 149.262 16.1881 149.876 15.5741C150.49 14.9601 151.173 14.619 151.992 14.619C152.879 14.619 153.63 14.8919 154.176 15.5059C154.791 16.1199 155.064 16.8021 155.064 17.689C155.064 18.7805 154.723 19.5992 153.972 20.2132Z" fill="#E2E2E2"/>
<path d="M8.30303 54.0663H7.68868C7.62042 53.9298 7.62042 53.4523 7.62042 52.429C7.27912 53.1112 6.45999 54.1345 4.41216 54.1345C1.5452 54.1345 0.043457 51.9514 0.043457 49.0861C0.043457 46.0843 1.61346 43.833 4.54868 43.833C6.73303 43.833 8.16651 44.9928 8.43956 46.8348H7.68868C7.27912 45.4021 6.2552 44.5835 4.54868 44.5835C2.02302 44.5835 0.862589 46.5619 0.862589 49.0861C0.862589 51.4056 1.95476 53.4523 4.41216 53.4523C6.93781 53.4523 7.62042 51.815 7.62042 49.6319V49.4954H4.3439V48.8132H8.30303V54.0663Z" fill="white"/>
<path d="M15.4706 52.7021C15.4706 53.3161 15.5389 53.8619 15.5389 54.0666H14.8563C14.788 53.8619 14.788 53.589 14.7198 52.975C14.4467 53.5208 13.8324 54.2712 12.3989 54.2712C10.7606 54.2712 10.0098 53.1797 10.0098 52.1564C10.0098 50.5873 11.2385 49.8368 13.3546 49.8368C13.9689 49.8368 14.4467 49.8368 14.7198 49.8368V49.0864C14.7198 48.4042 14.515 47.3808 12.8767 47.3808C11.4432 47.3808 11.2385 48.1313 11.0337 48.7453H10.3511C10.4193 47.9266 10.8972 46.7668 12.8767 46.7668C14.515 46.7668 15.4024 47.4491 15.4024 49.0182V52.7021H15.4706ZM14.788 50.4508C14.515 50.4508 13.8324 50.4508 13.3546 50.4508C11.7846 50.4508 10.7606 50.8602 10.7606 52.0882C10.7606 52.975 11.375 53.589 12.3989 53.589C14.4467 53.589 14.7198 52.2246 14.7198 50.6555V50.4508H14.788Z" fill="white"/>
<path d="M16.9721 53.452L21.4773 47.6532H17.1769V46.9709H22.2964V47.6532L17.7912 53.452H22.4329L22.2282 54.1342H16.9038V53.452H16.9721Z" fill="white"/>
<path d="M28.8495 52.7021C28.8495 53.3161 28.9178 53.8619 28.9178 54.0666H28.2352C28.1669 53.8619 28.1669 53.589 28.0987 52.975C27.8256 53.5208 27.2113 54.2712 25.7778 54.2712C24.1395 54.2712 23.3887 53.1797 23.3887 52.1564C23.3887 50.5873 24.6174 49.8368 26.7335 49.8368C27.3478 49.8368 27.8256 49.8368 28.0987 49.8368V49.0864C28.0987 48.4042 27.8939 47.3808 26.2556 47.3808C24.8222 47.3808 24.6174 48.1313 24.4126 48.7453H23.73C23.7982 47.9266 24.2761 46.7668 26.2556 46.7668C27.8939 46.7668 28.7813 47.4491 28.7813 49.0182V52.7021H28.8495ZM28.1669 50.4508C27.8939 50.4508 27.2113 50.4508 26.7335 50.4508C25.1635 50.4508 24.1395 50.8602 24.1395 52.0882C24.1395 52.975 24.7539 53.589 25.7778 53.589C27.8256 53.589 28.0987 52.2246 28.0987 50.6555V50.4508H28.1669Z" fill="white"/>
<path d="M43.5938 49.0175C43.5938 51.7464 42.1604 54.2706 39.0204 54.2706C36.2217 54.2706 34.5151 52.0193 34.5151 49.0857C34.5151 46.2204 36.0851 43.9009 39.0886 43.9009C41.8873 43.9009 43.5938 46.084 43.5938 49.0175ZM35.4025 49.0175C35.4025 51.3371 36.6995 53.5202 39.0886 53.5202C41.6825 53.5202 42.7747 51.4053 42.7747 49.0175C42.7747 46.698 41.546 44.6513 39.0886 44.6513C36.4947 44.6513 35.4025 46.7662 35.4025 49.0175Z" fill="white"/>
<path d="M45.5049 48.8817C45.5049 47.6537 45.5049 47.1762 45.5049 46.9033H46.1875C46.1875 47.108 46.1875 47.5855 46.1875 48.5406C46.5971 47.4491 47.5527 46.8351 48.7132 46.7668V47.5173C47.2114 47.5855 46.1875 48.6771 46.1875 50.3826V54.1348H45.5049V48.8817Z" fill="white"/>
<path d="M50.7612 53.0431V57H50.0786V48.7452C50.0786 48.1312 50.0786 47.5172 50.0786 46.9714H50.7612C50.7612 47.2443 50.7612 47.6536 50.7612 48.2676C51.239 47.3807 51.9899 46.835 53.2869 46.835C54.9934 46.835 56.1538 48.2676 56.1538 50.3825C56.1538 52.9749 54.7886 54.3394 53.0138 54.3394C51.7851 54.2711 51.1025 53.7254 50.7612 53.0431ZM55.403 50.3143C55.403 48.6769 54.5838 47.3807 53.1504 47.3807C51.4438 47.3807 50.693 48.4723 50.693 50.4507C50.693 52.3609 51.239 53.5889 53.0138 53.5889C54.5156 53.5889 55.403 52.2927 55.403 50.3143Z" fill="white"/>
<path d="M58.6797 43.5601V48.1309C59.0892 47.3805 59.7719 46.7665 61.0688 46.7665C62.0927 46.7665 63.4579 47.3123 63.4579 49.5636V54.1344H62.7753V49.7C62.7753 48.2674 62.161 47.4487 60.9323 47.4487C59.4988 47.4487 58.6797 48.3356 58.6797 50.1094V54.1344H57.9971V43.5601H58.6797Z" fill="white"/>
<path d="M70.6259 52.7021C70.6259 53.3161 70.6942 53.8619 70.6942 54.0666H70.0116C69.9433 53.8619 69.9433 53.589 69.875 52.975C69.602 53.5208 68.9877 54.2712 67.5542 54.2712C65.9159 54.2712 65.165 53.1797 65.165 52.1564C65.165 50.5873 66.3937 49.8368 68.5098 49.8368C69.1242 49.8368 69.602 49.8368 69.875 49.8368V49.0864C69.875 48.4042 69.6703 47.3808 68.032 47.3808C66.5985 47.3808 66.3937 48.1313 66.189 48.7453H65.5063C65.5746 47.9266 66.0524 46.7668 68.032 46.7668C69.6703 46.7668 70.5577 47.4491 70.5577 49.0182V52.7021H70.6259ZM69.9433 50.4508C69.6703 50.4508 68.9877 50.4508 68.5098 50.4508C66.9398 50.4508 65.9159 50.8602 65.9159 52.0882C65.9159 52.975 66.5303 53.589 67.5542 53.589C69.602 53.589 69.875 52.2246 69.875 50.6555V50.4508H69.9433Z" fill="white"/>
<path d="M73.0146 48.7452C73.0146 48.1312 73.0146 47.5172 73.0146 46.9714H73.6973C73.6973 47.1761 73.7655 48.1312 73.6973 48.3358C74.0386 47.5854 74.5847 46.835 76.0864 46.835C77.3834 46.835 78.4755 47.5172 78.4755 49.4956V54.1347H77.7929V49.6321C77.7929 48.3358 77.2468 47.5172 76.0181 47.5172C74.3116 47.5172 73.6973 48.9498 73.6973 50.5189V54.2029H73.0146V48.7452Z" fill="white"/>
<path d="M80.7279 52.0875C81.001 53.0426 81.6153 53.5884 82.7758 53.5884C84.0727 53.5884 84.5505 52.9744 84.5505 52.224C84.5505 51.4053 84.2092 50.996 82.571 50.5866C80.7279 50.1091 80.2501 49.5633 80.2501 48.6082C80.2501 47.6531 81.001 46.698 82.6392 46.698C84.2775 46.698 85.0284 47.6531 85.1649 48.6764H84.4823C84.3458 48.0624 83.8679 47.312 82.6392 47.312C81.4105 47.312 81.001 47.926 81.001 48.4718C81.001 49.154 81.3423 49.4269 82.7758 49.8362C84.8236 50.3137 85.3014 50.996 85.3014 52.0875C85.3014 53.3837 84.2092 54.2024 82.7075 54.2024C81.0692 54.2024 80.1818 53.3155 79.9771 52.0875H80.7279Z" fill="white"/>
<path d="M91.1035 44.0378H97.1787V44.7201H91.8544V48.4723H96.8374V49.1545H91.8544V53.9982H91.1035V44.0378Z" fill="white"/>
<path d="M104.551 50.519C104.551 52.4975 103.459 54.2712 101.343 54.2712C99.4318 54.2712 98.2031 52.7021 98.2031 50.519C98.2031 48.4724 99.3636 46.7668 101.411 46.7668C103.254 46.7668 104.551 48.2677 104.551 50.519ZM98.8857 50.519C98.8857 52.2246 99.7731 53.589 101.343 53.589C102.913 53.589 103.732 52.2928 103.732 50.519C103.732 48.8135 102.845 47.4491 101.275 47.4491C99.7049 47.4491 98.8857 48.8135 98.8857 50.519Z" fill="white"/>
<path d="M111.65 52.0194C111.65 52.7016 111.65 53.8614 111.65 54.1342H110.967C110.967 53.9296 110.899 53.452 110.899 52.9062C110.626 53.7249 109.875 54.3389 108.578 54.3389C107.554 54.3389 106.257 53.9296 106.257 51.7465V46.9709H106.94V51.5418C106.94 52.5651 107.281 53.5885 108.715 53.5885C110.353 53.5885 110.899 52.7016 110.899 50.6549V46.9709H111.582V52.0194H111.65Z" fill="white"/>
<path d="M114.039 48.7452C114.039 48.1312 114.039 47.5172 114.039 46.9714H114.722C114.722 47.1761 114.79 48.1312 114.722 48.3358C115.063 47.5854 115.609 46.835 117.111 46.835C118.408 46.835 119.5 47.5172 119.5 49.4956V54.1347H118.817V49.6321C118.817 48.3358 118.271 47.5172 117.043 47.5172C115.336 47.5172 114.722 48.9498 114.722 50.5189V54.2029H114.039V48.7452Z" fill="white"/>
<path d="M127.418 43.5601V52.0878C127.418 52.77 127.418 53.4522 127.418 54.1344H126.736C126.736 53.9298 126.668 53.3158 126.668 52.9064C126.326 53.7933 125.507 54.2709 124.278 54.2709C122.435 54.2709 121.275 52.77 121.275 50.5869C121.275 48.4038 122.504 46.7665 124.415 46.7665C125.848 46.7665 126.394 47.3805 126.668 47.858V43.5601H127.418ZM122.094 50.5869C122.094 52.5653 123.118 53.5887 124.347 53.5887C126.258 53.5887 126.736 52.2924 126.736 50.314C126.736 48.472 126.258 47.3805 124.483 47.3805C123.05 47.4487 122.094 48.5403 122.094 50.5869Z" fill="white"/>
<path d="M134.586 52.7021C134.586 53.3161 134.654 53.8619 134.654 54.0666H133.972C133.903 53.8619 133.903 53.589 133.835 52.975C133.562 53.5208 132.948 54.2712 131.514 54.2712C129.876 54.2712 129.125 53.1797 129.125 52.1564C129.125 50.5873 130.354 49.8368 132.47 49.8368C133.084 49.8368 133.562 49.8368 133.835 49.8368V49.0864C133.835 48.4042 133.63 47.3808 131.992 47.3808C130.558 47.3808 130.354 48.1313 130.149 48.7453H129.466C129.535 47.9266 130.012 46.7668 131.992 46.7668C133.63 46.7668 134.518 47.4491 134.518 49.0182V52.7021H134.586ZM133.903 50.4508C133.63 50.4508 132.948 50.4508 132.47 50.4508C130.9 50.4508 129.876 50.8602 129.876 52.0882C129.876 52.975 130.49 53.589 131.514 53.589C133.562 53.589 133.835 52.2246 133.835 50.6555V50.4508H133.903Z" fill="white"/>
<path d="M135.746 46.9029H137.111V44.6516H137.794V46.9029H139.5V47.5851H137.794V52.2242C137.794 53.0429 137.999 53.4522 138.681 53.4522C138.886 53.4522 139.227 53.4522 139.432 53.384V53.998C139.159 54.0662 138.818 54.1344 138.545 54.1344C137.657 54.1344 137.111 53.6569 137.111 52.4971V47.5169H135.746V46.9029Z" fill="white"/>
<path d="M140.934 43.5601H141.616V44.9245H140.934V43.5601ZM140.934 46.9029H141.616V54.0662H140.934V46.9029Z" fill="white"/>
<path d="M149.808 50.519C149.808 52.4975 148.716 54.2712 146.599 54.2712C144.688 54.2712 143.459 52.7021 143.459 50.519C143.459 48.4724 144.62 46.7668 146.668 46.7668C148.511 46.7668 149.808 48.2677 149.808 50.519ZM144.142 50.519C144.142 52.2246 145.029 53.589 146.599 53.589C148.169 53.589 148.989 52.2928 148.989 50.519C148.989 48.8135 148.101 47.4491 146.531 47.4491C144.961 47.4491 144.142 48.8135 144.142 50.519Z" fill="white"/>
<path d="M151.583 48.7452C151.583 48.1312 151.583 47.5172 151.583 46.9714H152.266C152.266 47.1761 152.334 48.1312 152.266 48.3358C152.607 47.5854 153.153 46.835 154.655 46.835C155.952 46.835 157.044 47.5172 157.044 49.4956V54.1347H156.361V49.6321C156.361 48.3358 155.815 47.5172 154.586 47.5172C152.88 47.5172 152.266 48.9498 152.266 50.5189V54.2029H151.583V48.7452Z" fill="white"/>
<path fill-rule="evenodd" clip-rule="evenodd" d="M189.636 46.189C176.755 26.2549 197.947 21.4098 203.28 28.0545C203.349 27.9853 204.665 26.1857 204.734 26.1165C196.216 13.6576 179.317 23.9708 181.187 34.2147C183.75 48.0579 204.111 61.8318 204.249 61.7626C204.388 61.7626 195.177 54.841 189.636 46.189Z" fill="#E2E2E2"/>
<path fill-rule="evenodd" clip-rule="evenodd" d="M225.441 19.5408C214.984 15.1802 207.089 23.4861 204.734 26.1163C204.665 26.1163 203.28 28.0543 203.28 28.0543C203.28 28.0543 201.341 31.9304 200.925 35.1836C200.787 36.0834 201.133 38.6443 202.379 40.3055C203.141 41.3438 204.388 41.9667 205.911 42.1051C206.604 42.1744 207.227 42.0359 207.712 41.7591C208.405 41.413 208.889 40.7208 209.097 40.3747C209.443 39.7518 209.651 39.1289 209.79 38.4367C209.998 37.4677 209.998 36.5679 209.998 35.5989C209.859 33.4532 208.682 30.4077 206.396 27.7775C206.535 27.5698 206.743 27.3622 206.881 27.1545C208.889 24.732 211.867 22.6555 216.092 21.6865C221.771 20.4406 229.528 24.3859 229.874 30.9614C230.566 43.4895 212.491 56.7789 212.629 56.8481C212.768 56.9173 231.952 42.7281 232.99 32.0688C233.129 29.1618 231.882 22.2402 225.441 19.5408ZM206.881 35.6681C207.297 39.0596 205.842 39.9594 205.773 40.0979C205.219 39.8902 204.942 39.4057 204.665 38.9212C203.903 37.6061 203.765 35.8757 203.765 35.1836C203.765 33.6608 204.111 31.9304 204.873 30.2C206.188 32.1381 206.673 34.1453 206.881 35.6681Z" fill="#E2E2E2"/>
<path fill-rule="evenodd" clip-rule="evenodd" d="M183.542 14.4174C183.473 14.4174 183.611 15.7325 183.819 16.4246C184.027 17.0476 184.373 17.6705 184.65 18.0858C185.135 18.778 185.966 19.4009 186.866 19.747C187.836 20.0931 188.875 20.0239 189.844 19.4701C190.606 18.9856 191.16 18.2935 191.506 17.4629C191.991 16.2862 192.06 14.9711 191.991 13.8637C191.991 12.687 191.714 11.6488 191.16 10.6105C190.675 9.64149 189.983 8.8109 189.013 8.11875C187.836 7.28816 186.728 7.28816 185.827 7.70345C183.68 8.60326 183.473 11.4411 183.542 11.4411C183.611 11.4411 184.719 9.15698 186.935 9.50306C189.29 9.84914 191.991 15.4556 188.182 17.3937C185.204 18.9164 183.68 14.3482 183.542 14.4174Z" fill="#E2E2E2"/>
<path fill-rule="evenodd" clip-rule="evenodd" d="M200.994 15.3184C200.925 15.3184 200.856 16.4259 200.994 17.0488C201.133 17.6025 201.271 18.1562 201.479 18.5715C201.756 19.2637 202.379 19.8866 203.141 20.3019C203.903 20.7172 204.803 20.8557 205.634 20.5096C206.396 20.2327 206.881 19.679 207.296 19.0561C207.85 18.1562 208.058 16.9796 208.197 16.0798C208.266 15.18 208.197 14.2109 207.92 13.3111C207.643 12.4806 207.158 11.65 206.465 10.9578C205.565 10.058 204.665 9.98879 203.834 10.1272C201.894 10.5425 201.34 12.9651 201.41 12.9651C201.479 12.9651 202.725 11.2347 204.526 11.7884C206.465 12.4113 207.92 17.4641 204.457 18.5715C201.756 19.3329 201.063 15.3184 200.994 15.3184Z" fill="#E2E2E2"/>
<path fill-rule="evenodd" clip-rule="evenodd" d="M218.932 7.84297C218.863 7.84297 218.586 9.50414 218.655 10.4039C218.724 11.2345 218.932 12.0651 219.209 12.7573C219.555 13.7955 220.456 14.8338 221.495 15.5259C222.603 16.2873 223.918 16.4949 225.234 16.1489C226.342 15.8028 227.243 15.0414 227.935 14.1416C228.905 12.8265 229.39 11.1653 229.667 9.78101C229.874 8.46591 229.944 7.01238 229.597 5.55885C229.32 4.24375 228.697 2.92865 227.728 1.82119C226.481 0.367662 225.165 0.0907989 223.849 0.298446C220.94 0.713741 219.694 4.17453 219.832 4.24375C219.902 4.24375 221.979 1.82119 224.68 2.85943C227.52 4.0361 229.113 11.8575 223.711 13.0342C219.555 14.0032 219.071 7.84297 218.932 7.84297Z" fill="#E2E2E2"/>
<path fill-rule="evenodd" clip-rule="evenodd" d="M214.208 40.7703C214.049 38.3108 212.7 34.8992 210.08 31.8049L210.16 31.7256H210.08V31.8049C209.763 32.281 209.366 32.8363 209.048 33.3124C208.731 33.7091 208.572 34.1851 208.413 34.5818C208.413 34.6612 208.492 34.6612 208.492 34.7405C208.492 34.6612 208.492 34.6612 208.572 34.5818C210.001 36.8033 210.636 39.1042 210.795 40.8497C211.271 44.7373 209.604 45.7688 209.524 45.9274C209.524 45.9274 209.524 45.9274 209.524 46.0068C210.636 46.6415 211.747 46.7208 212.938 46.8002C213.097 46.6415 213.176 46.4035 213.256 46.2448C213.653 45.5307 213.891 44.8167 214.049 44.0233C214.208 42.9125 214.208 41.8811 214.208 40.7703Z" fill="#E2E2E2"/>
</g>
<defs>
<clipPath id="clip0_1_820">
<rect width="232.957" height="61.5254" fill="white" transform="translate(0.043457 0.237305)"/>
</clipPath>
</defs>
</svg>
